<?xml version="1.0" encoding="UTF-8" standalone="no"?>
<svg xmlns="http://www.w3.org/2000/svg" width="1440" height="767">
<g transform="scale(1,1)">
</g><path d="M 720,383.50000000000006 720,311.50000000000006 792,311.50000000000006 792,383.50000000000006 720,383.50000000000006 720,311.50000000000006 " style="stroke-linecap:round;fill:rgb(255,0,126);fill-opacity:1;stroke:rgb(255,0,126);stroke-opacity:1;stroke-width:6pt;" /><path d="M 381.59999999999997,633.1 318.02777331415723,599.2980474794159 351.8297258347414,535.7258207935732 415.40195252058413,569.5277733141573 381.59999999999997,633.1000000000001 318.02777331415723,599.2980474794161 " style="stroke-linecap:round;fill:rgb(255,177,0);fill-opacity:1;stroke:rgb(255,177,0);stroke-opacity:1;stroke-width:6pt;" /><path d="M 264,479.5 332.47606917325106,501.74922359499624 310.2268455782548,570.2252927682473 241.75077640500376,547.9760691732511 264,479.5 332.47606917325106,501.74922359499624 " style="stroke-linecap:round;fill:rgb(255,0,14);fill-opacity:1;stroke:rgb(255,0,14);stroke-opacity:1;stroke-width:6pt;" /><path d="M 390,457.90000000000003 319.093841783121,470.40266879201897 306.591172991102,399.49651057514 377.49733120798095,386.99384178312096 389.99999999999994,457.9 319.0938417831209,470.40266879201897 " style="stroke-linecap:round;fill:rgb(219,245,0);fill-opacity:1;stroke:rgb(219,245,0);stroke-opacity:1;stroke-width:6pt;" /><path d="M 909.6,276.70000000000005 838.4864394771502,287.96328148289666 827.2231579942535,216.84972096004677 898.3367185171035,205.58643947715015 909.6000000000001,276.70000000000005 838.4864394771503,287.96328148289666 " style="stroke-linecap:round;fill:rgb(0,186,239);fill-opacity:1;stroke:rgb(0,186,239);stroke-opacity:1;stroke-width:6pt;" /><path d="M 1216.8,565.9 1260.1306816669473,623.4017567234051 1202.6289249435422,666.7324383903526 1159.2982432765948,609.2306816669476 1216.7999999999997,565.9 1260.1306816669473,623.4017567234051 " style="stroke-linecap:round;fill:rgb(240,9,255);fill-opacity:1;stroke:rgb(240,9,255);stroke-opacity:1;stroke-width:6pt;" /><path d="M 676.8,198.70000000000005 747.4771572082317,184.9617523328888 761.215404875343,255.6389095411206 690.5382476671112,269.37715720823184 676.8,198.70000000000005 747.4771572082317,184.9617523328888 " style="stroke-linecap:round;fill:rgb(78,39,254);fill-opacity:1;stroke:rgb(78,39,254);stroke-opacity:1;stroke-width:6pt;" /><path d="M 244.79999999999998,708.7 315.706158216879,696.197331207981 328.2088270088979,767.1034894248602 257.30266879201895,779.6061582168791 244.79999999999984,708.7000000000002 315.70615821687886,696.197331207981 " style="stroke-linecap:round;fill:rgb(148,244,0);fill-opacity:1;stroke:rgb(148,244,0);stroke-opacity:1;stroke-width:6pt;" /><path d="M 542.4,40.30000000000005 477.6868286664599,71.86272256881364 446.12410609764635,7.149551235273589 510.8372774311863,-24.413171333540003 542.3999999999999,40.30000000000005 477.6868286664598,71.86272256881364 " style="stroke-linecap:round;fill:rgb(0,193,161);fill-opacity:1;stroke:rgb(0,193,161);stroke-opacity:1;stroke-width:6pt;" /><path d="M 655.1999999999999,353.50000000000006 599.2454907750981,308.18893184441174 644.5565589306864,252.23442261950981 700.5110681555883,297.54549077509813 655.1999999999999,353.50000000000006 599.2454907750981,308.18893184441174 " style="stroke-linecap:round;fill:rgb(0,184,243);fill-opacity:1;stroke:rgb(0,184,243);stroke-opacity:1;stroke-width:6pt;" /><path d="M 319.2,127.90000000000003 311.6739506447289,199.5055764665157 240.06837417821328,191.97952711124464 247.59442353348433,120.37395064472898 319.2,127.9 311.673950644729,199.5055764665157 " style="stroke-linecap:round;fill:rgb(254,138,0);fill-opacity:1;stroke:rgb(254,138,0);stroke-opacity:1;stroke-width:6pt;" /><path d="M 246,209.50000000000003 300.33908977603954,256.7362500873166 253.102839688723,311.07533986335613 198.76374991268338,263.8390897760396 245.99999999999991,209.50000000000003 300.3390897760395,256.7362500873166 " style="stroke-linecap:round;fill:rgb(0,241,67);fill-opacity:1;stroke:rgb(0,241,67);stroke-opacity:1;stroke-width:6pt;" /><path d="M 494.4,417.1 427.1822092922015,442.9024923672617 401.3797169249398,375.6847016594632 468.59750763273837,349.88220929220154 494.4,417.1000000000001 427.1822092922015,442.90249236726174 " style="stroke-linecap:round;fill:rgb(255,199,0);fill-opacity:1;stroke:rgb(255,199,0);stroke-opacity:1;stroke-width:6pt;" /><path d="M 1316.3999999999999,396.70000000000005 1303.8973312079809,325.793841783121 1374.80348942486,313.29117299110203 1387.3061582168787,384.197331207981 1316.3999999999996,396.70000000000005 1303.8973312079806,325.793841783121 " style="stroke-linecap:round;fill:rgb(255,0,223);fill-opacity:1;stroke:rgb(255,0,223);stroke-opacity:1;stroke-width:6pt;" /><path d="M 818.4,598.3000000000001 747.7228427917682,612.0382476671112 733.984595124657,541.3610904588795 804.6617523328887,527.6228427917682 818.4,598.3000000000001 747.7228427917682,612.0382476671114 " style="stroke-linecap:round;fill:rgb(255,0,209);fill-opacity:1;stroke:rgb(255,0,209);stroke-opacity:1;stroke-width:6pt;" /><path d="M 1210.8,717.1 1138.8986734976706,720.8681888494921 1135.1304846481785,648.9668623471626 1207.0318111505078,645.1986734976708 1210.7999999999997,717.1000000000001 1138.8986734976704,720.8681888494921 " style="stroke-linecap:round;fill:rgb(255,231,0);fill-opacity:1;stroke:rgb(255,231,0);stroke-opacity:1;stroke-width:6pt;" /><path d="M 362.4,119.50000000000004 411.50388192449986,172.15746651658029 358.8464154079196,221.26134844108023 309.7425334834197,168.60388192449992 362.4,119.50000000000004 411.50388192449986,172.15746651658029 " style="stroke-linecap:round;fill:rgb(255,0,136);fill-opacity:1;stroke:rgb(255,0,136);stroke-opacity:1;stroke-width:6pt;" /><path d="M 192,372.70000000000005 147.67237377655263,429.43677425968406 90.9355995168687,385.1091480362366 135.26322574031605,328.3723737765526 192.00000000000006,372.70000000000005 147.67237377655272,429.43677425968406 " style="stroke-linecap:round;fill:rgb(255,0,84);fill-opacity:1;stroke:rgb(255,0,84);stroke-opacity:1;stroke-width:6pt;" /><path d="M 442.8,337.90000000000003 370.8,337.90000000000003 370.8,265.90000000000003 442.8,265.90000000000003 442.8,337.90000000000003 370.8,337.90000000000003 " style="stroke-linecap:round;fill:rgb(0,193,182);fill-opacity:1;stroke:rgb(0,193,182);stroke-opacity:1;stroke-width:6pt;" /><path d="M 674.4,46.30000000000005 745.0771572082317,32.56175233288884 758.815404875343,103.23890954112066 688.1382476671113,116.9771572082319 674.4,46.30000000000011 745.0771572082317,32.56175233288891 " style="stroke-linecap:round;fill:rgb(255,177,0);fill-opacity:1;stroke:rgb(255,177,0);stroke-opacity:1;stroke-width:6pt;" /><path d="M 668.4,322.3 731.9722266858428,356.1019525205842 698.1702741652585,419.6741792064269 634.5980474794158,385.8722266858428 668.4,322.3 731.9722266858428,356.1019525205842 " style="stroke-linecap:round;fill:rgb(255,231,0);fill-opacity:1;stroke:rgb(255,231,0);stroke-opacity:1;stroke-width:6pt;" /><path d="M 381.59999999999997,372.70000000000005 358.1590928790847,440.7773374431509 290.08175543593387,417.33643032223557 313.5226625568492,349.25909287908473 381.59999999999997,372.70000000000005 358.1590928790847,440.7773374431509 " style="stroke-linecap:round;fill:rgb(255,0,178);fill-opacity:1;stroke:rgb(255,0,178);stroke-opacity:1;stroke-width:6pt;" /><path d="M 638.4,490.3 660.6492235949962,421.82393082674895 729.1252927682473,444.0731544217452 706.876069173251,512.5492235949963 638.4,490.3 660.6492235949962,421.82393082674895 " style="stroke-linecap:round;fill:rgb(78,39,254);fill-opacity:1;stroke:rgb(78,39,254);stroke-opacity:1;stroke-width:6pt;" /><path d="M 584.4,322.3 644.7842808920706,283.08598947891807 683.9982914131525,343.4702703709886 623.6140105210819,382.6842808920705 584.4000000000001,322.29999999999995 644.7842808920706,283.085989478918 " style="stroke-linecap:round;fill:rgb(255,0,178);fill-opacity:1;stroke:rgb(255,0,178);stroke-opacity:1;stroke-width:6pt;" /><path d="M 768,345.1 833.2541606666388,375.5285148453304 802.8256458213085,440.7826755119692 737.5714851546696,410.35416066663885 768,345.1 833.2541606666388,375.5285148453304 " style="stroke-linecap:round;fill:rgb(101,238,0);fill-opacity:1;stroke:rgb(101,238,0);stroke-opacity:1;stroke-width:6pt;" /><path d="M 1166.3999999999999,191.50000000000003 1217.3116882454315,140.58831175456862 1268.2233764908628,191.50000000000003 1217.3116882454315,242.41168824543146 1166.3999999999999,191.50000000000003 1217.3116882454315,140.58831175456862 " style="stroke-linecap:round;fill:rgb(0,182,249);fill-opacity:1;stroke:rgb(0,182,249);stroke-opacity:1;stroke-width:6pt;" /><path d="M 844.8,283.90000000000003 901.536774259684,239.57237377655264 945.8644004831314,296.30914803623665 889.1276262234474,340.636774259684 844.7999999999998,283.90000000000003 901.5367742596837,239.57237377655264 " style="stroke-linecap:round;fill:rgb(255,0,157);fill-opacity:1;stroke:rgb(255,0,157);stroke-opacity:1;stroke-width:6pt;" /><path d="M 687.6,579.1 628.6210528111926,537.8024965827248 669.9185562284679,478.82354939391735 728.8975034172753,520.1210528111926 687.6,579.1 628.6210528111926,537.8024965827248 " style="stroke-linecap:round;fill:rgb(62,236,0);fill-opacity:1;stroke:rgb(62,236,0);stroke-opacity:1;stroke-width:6pt;" /><path d="M 910.8,336.70000000000005 905.777533890423,264.8753883812927 977.6021455091304,259.85292227171567 982.6246116187074,331.677533890423 910.8,336.70000000000005 905.777533890423,264.8753883812927 " style="stroke-linecap:round;fill:rgb(255,9,0);fill-opacity:1;stroke:rgb(255,9,0);stroke-opacity:1;stroke-width:6pt;" /><path d="M 940.8,695.5 923.3816235168239,625.6387077081283 993.2429158086957,608.2203312249522 1010.6612922918716,678.0816235168239 940.8,695.5 923.3816235168239,625.6387077081283 " style="stroke-linecap:round;fill:rgb(255,0,96);fill-opacity:1;stroke:rgb(255,0,96);stroke-opacity:1;stroke-width:6pt;" /><path d="M 729.6,96.70000000000005 708.5492372599629,165.55394242933858 639.6952948306242,144.50317968930156 660.7460575706613,75.64923725996297 729.5999999999998,96.7 708.5492372599629,165.55394242933855 " style="stroke-linecap:round;fill:rgb(0,194,126);fill-opacity:1;stroke:rgb(0,194,126);stroke-opacity:1;stroke-width:6pt;" /><path d="M 669.6,151.90000000000003 741.4246116187072,156.92246610957707 736.4021455091303,228.74707772828444 664.577533890423,223.7246116187074 669.6,151.90000000000003 741.4246116187072,156.92246610957707 " style="stroke-linecap:round;fill:rgb(255,9,0);fill-opacity:1;stroke:rgb(255,9,0);stroke-opacity:1;stroke-width:6pt;" /><path d="M 122.39999999999999,106.30000000000004 69.74253348341968,57.19611807550016 118.84641540791955,4.5386515589199 171.5038819244998,53.64253348341979 122.39999999999992,106.30000000000008 69.74253348341968,57.19611807550022 " style="stroke-linecap:round;fill:rgb(26,75,255);fill-opacity:1;stroke:rgb(26,75,255);stroke-opacity:1;stroke-width:6pt;" /><path d="M 310.8,451.90000000000003 381.706158216879,464.40266879201897 369.20348942486,535.308827008898 298.29733120798096,522.806158216879 310.8,451.90000000000003 381.706158216879,464.40266879201897 " style="stroke-linecap:round;fill:rgb(255,0,236);fill-opacity:1;stroke:rgb(255,0,236);stroke-opacity:1;stroke-width:6pt;" /><path d="M 432,317.50000000000006 482.9116882454314,368.41168824543144 432,419.32337649086287 381.08831175456856,368.41168824543144 432,317.50000000000006 482.9116882454314,368.41168824543144 " style="stroke-linecap:round;fill:rgb(255,28,0);fill-opacity:1;stroke:rgb(255,28,0);stroke-opacity:1;stroke-width:6pt;" /><path d="M 327.59999999999997,485.5 272.44480009543355,439.2192921025692 318.7255079928644,384.0640921980028 373.8807078974308,430.3448000954336 327.59999999999997,485.5 272.44480009543355,439.2192921025692 " style="stroke-linecap:round;fill:rgb(255,190,0);fill-opacity:1;stroke:rgb(255,190,0);stroke-opacity:1;stroke-width:6pt;" /><path d="M 438,545.5 444.2752134778314,617.2260182626057 372.5491952152257,623.5012317404372 366.2739817373943,551.7752134778315 438,545.5000000000001 444.2752134778314,617.2260182626057 " style="stroke-linecap:round;fill:rgb(255,173,0);fill-opacity:1;stroke:rgb(255,173,0);stroke-opacity:1;stroke-width:6pt;" /><path d="M 679.1999999999999,706.3000000000001 686.726049355271,777.9055764665158 615.1204728887553,785.4316258217868 607.5944235334842,713.8260493552713 679.1999999999999,706.3000000000002 686.726049355271,777.9055764665158 " style="stroke-linecap:round;fill:rgb(207,248,0);fill-opacity:1;stroke:rgb(207,248,0);stroke-opacity:1;stroke-width:6pt;" /><path d="M 596.4,473.5 570.5975076327384,406.28220929220157 637.8152983405369,380.4797169249399 663.6177907077985,447.69750763273845 596.4,473.5000000000001 570.5975076327384,406.2822092922016 " style="stroke-linecap:round;fill:rgb(229,242,0);fill-opacity:1;stroke:rgb(229,242,0);stroke-opacity:1;stroke-width:6pt;" /><path d="M 954,402.70000000000005 1025.7260182626055,396.42478652216863 1032.0012317404369,468.1508047847743 960.2752134778314,474.4260182626057 954,402.70000000000005 1025.7260182626055,396.42478652216863 " style="stroke-linecap:round;fill:rgb(253,91,0);fill-opacity:1;stroke:rgb(253,91,0);stroke-opacity:1;stroke-width:6pt;" /><path d="M 1008,64.30000000000004 936.0109659487398,65.55657326348444 934.7543926852553,-6.432460787775722 1006.7434267365155,-7.689034051260114 1008,64.30000000000004 936.0109659487398,65.55657326348444 " style="stroke-linecap:round;fill:rgb(0,250,48);fill-opacity:1;stroke:rgb(0,250,48);stroke-opacity:1;stroke-width:6pt;" /><path d="M 981.5999999999999,521.5 1047.3752729502673,550.7850383014576 1018.0902346488097,616.5603112517249 952.3149616985423,587.2752729502673 981.5999999999999,521.5 1047.3752729502673,550.7850383014576 " style="stroke-linecap:round;fill:rgb(153,0,242);fill-opacity:1;stroke:rgb(153,0,242);stroke-opacity:1;stroke-width:6pt;" /><path d="M 255.6,127.90000000000003 244.33671851710335,56.78643947715011 315.4502790399533,45.52315799425348 326.71356052284995,116.63671851710338 255.6,127.9 244.33671851710335,56.78643947715011 " style="stroke-linecap:round;fill:rgb(0,194,111);fill-opacity:1;stroke:rgb(0,194,111);stroke-opacity:1;stroke-width:6pt;" /><path d="M 832.8,449.50000000000006 882.8154026730477,501.29246562438294 831.022937048665,551.3078682974308 781.0075343756172,499.51540267304784 832.8,449.50000000000006 882.8154026730477,501.29246562438294 " style="stroke-linecap:round;fill:rgb(140,0,248);fill-opacity:1;stroke:rgb(140,0,248);stroke-opacity:1;stroke-width:6pt;" /><path d="M 1179.6,31.900000000000045 1113.3236505514244,3.767358748772335 1141.456291802652,-62.50899069980337 1207.7326412512277,-34.37634944857566 1179.6,31.900000000000045 1113.3236505514244,3.767358748772335 " style="stroke-linecap:round;fill:rgb(255,0,116);fill-opacity:1;stroke:rgb(255,0,116);stroke-opacity:1;stroke-width:6pt;" /><path d="M 362.4,661.9 292.8533405071871,680.5349712473815 274.2183692598056,610.9883117545686 343.76502875261855,592.3533405071871 362.40000000000003,661.9 292.8533405071871,680.5349712473815 " style="stroke-linecap:round;fill:rgb(0,246,23);fill-opacity:1;stroke:rgb(0,246,23);stroke-opacity:1;stroke-width:6pt;" /><path d="M 169.2,485.5 236.85786869658537,460.8745496805518 261.4833190160335,528.5324183771372 193.82545031944812,553.1578686965854 169.2,485.5 236.85786869658537,460.8745496805518 " style="stroke-linecap:round;fill:rgb(255,173,0);fill-opacity:1;stroke:rgb(255,173,0);stroke-opacity:1;stroke-width:6pt;" /><path d="M 633.6,79.90000000000005 561.6986734976706,83.668188849492 557.9304846481787,11.766862347162714 629.831811150508,7.998673497670756 633.6,79.90000000000008 561.6986734976706,83.66818884949207 " style="stroke-linecap:round;fill:rgb(0,192,207);fill-opacity:1;stroke:rgb(0,192,207);stroke-opacity:1;stroke-width:6pt;" /><path d="M 175.2,280.3 103.21096594873984,279.04342673651564 104.4675392122243,207.0543926852555 176.45657326348444,208.31096594873992 175.20000000000007,280.30000000000007 103.21096594873984,279.0434267365157 " style="stroke-linecap:round;fill:rgb(0,217,81);fill-opacity:1;stroke:rgb(0,217,81);stroke-opacity:1;stroke-width:6pt;" /><path d="M 1302,211.90000000000003 1257.6723737765526,268.636774259684 1200.9355995168685,224.30914803623662 1245.2632257403159,167.57237377655267 1302,211.90000000000003 1257.6723737765526,268.63677425968405 " style="stroke-linecap:round;fill:rgb(0,217,81);fill-opacity:1;stroke:rgb(0,217,81);stroke-opacity:1;stroke-width:6pt;" /><path d="M 417.59999999999997,736.3000000000001 354.02777331415723,770.1019525205841 320.2258207935731,706.5297258347413 383.79804747941586,672.727773314157 417.59999999999997,736.2999999999998 354.02777331415723,770.1019525205841 " style="stroke-linecap:round;fill:rgb(255,0,43);fill-opacity:1;stroke:rgb(255,0,43);stroke-opacity:1;stroke-width:6pt;" /></svg>